<mxfile host="www.draw.io" modified="2023-05-14T10:52:34.472Z" agent="Mozilla/5.0 (Windows NT 10.0; Win64; x64) AppleWebKit/537.36 (KHTML, like Gecko) Chrome/113.0.0.0 Safari/537.36" etag="lAW3JAcZ1W-hlfyzDNkF" version="21.3.0" type="device">
  <diagram name="Page-1" id="HPD1vFEmY8EwKxzOpka9">
    <mxGraphModel dx="2350" dy="1873" grid="1" gridSize="10" guides="1" tooltips="1" connect="1" arrows="1" fold="1" page="1" pageScale="1" pageWidth="850" pageHeight="1100" math="0" shadow="0">
      <root>
        <mxCell id="0" />
        <mxCell id="1" parent="0" />
        <mxCell id="bk5ybcZWfWzNLZp1r1MH-16" style="edgeStyle=orthogonalEdgeStyle;rounded=0;orthogonalLoop=1;jettySize=auto;html=1;entryX=0;entryY=0.5;entryDx=0;entryDy=0;" parent="1" source="bk5ybcZWfWzNLZp1r1MH-3" target="bk5ybcZWfWzNLZp1r1MH-11" edge="1">
          <mxGeometry relative="1" as="geometry" />
        </mxCell>
        <mxCell id="bk5ybcZWfWzNLZp1r1MH-22" style="edgeStyle=orthogonalEdgeStyle;rounded=0;orthogonalLoop=1;jettySize=auto;html=1;exitX=0.5;exitY=0;exitDx=0;exitDy=0;entryX=0;entryY=0.5;entryDx=0;entryDy=0;" parent="1" source="bk5ybcZWfWzNLZp1r1MH-3" target="bk5ybcZWfWzNLZp1r1MH-4" edge="1">
          <mxGeometry relative="1" as="geometry" />
        </mxCell>
        <mxCell id="bk5ybcZWfWzNLZp1r1MH-23" style="edgeStyle=orthogonalEdgeStyle;rounded=0;orthogonalLoop=1;jettySize=auto;html=1;exitX=0;exitY=0.5;exitDx=0;exitDy=0;" parent="1" source="bk5ybcZWfWzNLZp1r1MH-3" target="bk5ybcZWfWzNLZp1r1MH-5" edge="1">
          <mxGeometry relative="1" as="geometry" />
        </mxCell>
        <mxCell id="bk5ybcZWfWzNLZp1r1MH-24" value="" style="edgeStyle=orthogonalEdgeStyle;rounded=0;orthogonalLoop=1;jettySize=auto;html=1;" parent="1" source="bk5ybcZWfWzNLZp1r1MH-3" target="bk5ybcZWfWzNLZp1r1MH-15" edge="1">
          <mxGeometry relative="1" as="geometry" />
        </mxCell>
        <mxCell id="bk5ybcZWfWzNLZp1r1MH-26" style="edgeStyle=orthogonalEdgeStyle;rounded=0;orthogonalLoop=1;jettySize=auto;html=1;exitX=0.5;exitY=1;exitDx=0;exitDy=0;" parent="1" source="bk5ybcZWfWzNLZp1r1MH-3" target="bk5ybcZWfWzNLZp1r1MH-13" edge="1">
          <mxGeometry relative="1" as="geometry" />
        </mxCell>
        <mxCell id="bk5ybcZWfWzNLZp1r1MH-27" style="edgeStyle=orthogonalEdgeStyle;rounded=0;orthogonalLoop=1;jettySize=auto;html=1;exitX=0.5;exitY=1;exitDx=0;exitDy=0;entryX=0.5;entryY=0;entryDx=0;entryDy=0;" parent="1" source="bk5ybcZWfWzNLZp1r1MH-3" target="bk5ybcZWfWzNLZp1r1MH-14" edge="1">
          <mxGeometry relative="1" as="geometry" />
        </mxCell>
        <mxCell id="bk5ybcZWfWzNLZp1r1MH-3" value="Trang chủ" style="rounded=1;whiteSpace=wrap;html=1;" parent="1" vertex="1">
          <mxGeometry x="180" y="220" width="120" height="60" as="geometry" />
        </mxCell>
        <mxCell id="bk5ybcZWfWzNLZp1r1MH-28" style="edgeStyle=orthogonalEdgeStyle;rounded=0;orthogonalLoop=1;jettySize=auto;html=1;exitX=1;exitY=0.5;exitDx=0;exitDy=0;" parent="1" source="bk5ybcZWfWzNLZp1r1MH-4" target="bk5ybcZWfWzNLZp1r1MH-8" edge="1">
          <mxGeometry relative="1" as="geometry" />
        </mxCell>
        <mxCell id="bk5ybcZWfWzNLZp1r1MH-29" style="edgeStyle=orthogonalEdgeStyle;rounded=0;orthogonalLoop=1;jettySize=auto;html=1;exitX=1;exitY=0.5;exitDx=0;exitDy=0;entryX=0.5;entryY=0;entryDx=0;entryDy=0;" parent="1" source="bk5ybcZWfWzNLZp1r1MH-4" target="bk5ybcZWfWzNLZp1r1MH-9" edge="1">
          <mxGeometry relative="1" as="geometry" />
        </mxCell>
        <mxCell id="bn6vrm5dherGhuLXTLny-33" style="edgeStyle=orthogonalEdgeStyle;rounded=0;orthogonalLoop=1;jettySize=auto;html=1;exitX=0.5;exitY=0;exitDx=0;exitDy=0;entryX=0.5;entryY=1;entryDx=0;entryDy=0;" parent="1" source="bk5ybcZWfWzNLZp1r1MH-4" target="bn6vrm5dherGhuLXTLny-30" edge="1">
          <mxGeometry relative="1" as="geometry" />
        </mxCell>
        <mxCell id="bk5ybcZWfWzNLZp1r1MH-4" value="Đăng Nhập" style="rounded=1;whiteSpace=wrap;html=1;" parent="1" vertex="1">
          <mxGeometry x="530" width="120" height="60" as="geometry" />
        </mxCell>
        <mxCell id="bk5ybcZWfWzNLZp1r1MH-5" value="Đăng ký" style="rounded=1;whiteSpace=wrap;html=1;" parent="1" vertex="1">
          <mxGeometry x="60" y="110" width="120" height="60" as="geometry" />
        </mxCell>
        <mxCell id="bk5ybcZWfWzNLZp1r1MH-18" value="" style="edgeStyle=orthogonalEdgeStyle;rounded=0;orthogonalLoop=1;jettySize=auto;html=1;" parent="1" source="bk5ybcZWfWzNLZp1r1MH-6" target="bk5ybcZWfWzNLZp1r1MH-7" edge="1">
          <mxGeometry relative="1" as="geometry" />
        </mxCell>
        <mxCell id="bk5ybcZWfWzNLZp1r1MH-6" value="Chi tiết sản phẩm" style="rounded=1;whiteSpace=wrap;html=1;" parent="1" vertex="1">
          <mxGeometry x="530" y="220" width="120" height="60" as="geometry" />
        </mxCell>
        <mxCell id="bk5ybcZWfWzNLZp1r1MH-19" value="" style="edgeStyle=orthogonalEdgeStyle;rounded=0;orthogonalLoop=1;jettySize=auto;html=1;" parent="1" source="bk5ybcZWfWzNLZp1r1MH-7" target="bk5ybcZWfWzNLZp1r1MH-8" edge="1">
          <mxGeometry relative="1" as="geometry" />
        </mxCell>
        <mxCell id="bk5ybcZWfWzNLZp1r1MH-21" value="" style="edgeStyle=orthogonalEdgeStyle;rounded=0;orthogonalLoop=1;jettySize=auto;html=1;" parent="1" source="bk5ybcZWfWzNLZp1r1MH-7" target="bk5ybcZWfWzNLZp1r1MH-4" edge="1">
          <mxGeometry relative="1" as="geometry" />
        </mxCell>
        <mxCell id="bk5ybcZWfWzNLZp1r1MH-7" value="Giỏ hàng" style="rounded=1;whiteSpace=wrap;html=1;" parent="1" vertex="1">
          <mxGeometry x="530" y="100" width="120" height="60" as="geometry" />
        </mxCell>
        <mxCell id="bk5ybcZWfWzNLZp1r1MH-20" value="" style="edgeStyle=orthogonalEdgeStyle;rounded=0;orthogonalLoop=1;jettySize=auto;html=1;" parent="1" source="bk5ybcZWfWzNLZp1r1MH-8" target="bk5ybcZWfWzNLZp1r1MH-9" edge="1">
          <mxGeometry relative="1" as="geometry" />
        </mxCell>
        <mxCell id="bn6vrm5dherGhuLXTLny-4" style="edgeStyle=orthogonalEdgeStyle;rounded=0;orthogonalLoop=1;jettySize=auto;html=1;exitX=0.5;exitY=1;exitDx=0;exitDy=0;" parent="1" source="bk5ybcZWfWzNLZp1r1MH-8" target="bn6vrm5dherGhuLXTLny-2" edge="1">
          <mxGeometry relative="1" as="geometry" />
        </mxCell>
        <mxCell id="bn6vrm5dherGhuLXTLny-14" style="edgeStyle=orthogonalEdgeStyle;rounded=0;orthogonalLoop=1;jettySize=auto;html=1;exitX=1;exitY=1;exitDx=0;exitDy=0;entryX=0.5;entryY=0;entryDx=0;entryDy=0;" parent="1" source="bk5ybcZWfWzNLZp1r1MH-8" target="bn6vrm5dherGhuLXTLny-5" edge="1">
          <mxGeometry relative="1" as="geometry" />
        </mxCell>
        <mxCell id="bk5ybcZWfWzNLZp1r1MH-8" value="Thanh toán" style="rounded=1;whiteSpace=wrap;html=1;" parent="1" vertex="1">
          <mxGeometry x="700" y="100" width="120" height="60" as="geometry" />
        </mxCell>
        <mxCell id="bk5ybcZWfWzNLZp1r1MH-9" value="Lịch sử đơn hàng" style="rounded=1;whiteSpace=wrap;html=1;" parent="1" vertex="1">
          <mxGeometry x="1020" y="100" width="120" height="60" as="geometry" />
        </mxCell>
        <mxCell id="bk5ybcZWfWzNLZp1r1MH-17" value="" style="edgeStyle=orthogonalEdgeStyle;rounded=0;orthogonalLoop=1;jettySize=auto;html=1;" parent="1" source="bk5ybcZWfWzNLZp1r1MH-11" target="bk5ybcZWfWzNLZp1r1MH-6" edge="1">
          <mxGeometry relative="1" as="geometry" />
        </mxCell>
        <mxCell id="bk5ybcZWfWzNLZp1r1MH-11" value="Danh mục sản phẩm" style="rounded=1;whiteSpace=wrap;html=1;" parent="1" vertex="1">
          <mxGeometry x="360" y="220" width="120" height="60" as="geometry" />
        </mxCell>
        <mxCell id="bk5ybcZWfWzNLZp1r1MH-13" value="Hướng dẫn thanh toán" style="rounded=1;whiteSpace=wrap;html=1;" parent="1" vertex="1">
          <mxGeometry x="20" y="360" width="120" height="60" as="geometry" />
        </mxCell>
        <mxCell id="bk5ybcZWfWzNLZp1r1MH-14" value="Hướng dẫn bảo hành" style="rounded=1;whiteSpace=wrap;html=1;" parent="1" vertex="1">
          <mxGeometry x="330" y="360" width="120" height="60" as="geometry" />
        </mxCell>
        <mxCell id="bk5ybcZWfWzNLZp1r1MH-15" value="Hướng dẫn vận chuyển" style="rounded=1;whiteSpace=wrap;html=1;" parent="1" vertex="1">
          <mxGeometry x="180" y="360" width="120" height="60" as="geometry" />
        </mxCell>
        <mxCell id="bk5ybcZWfWzNLZp1r1MH-41" value="Nhân viên,quản lý đăng nhập" style="edgeStyle=orthogonalEdgeStyle;rounded=0;orthogonalLoop=1;jettySize=auto;html=1;fillColor=#e3c800;strokeColor=#d70ae6;" parent="1" source="bk5ybcZWfWzNLZp1r1MH-30" target="bk5ybcZWfWzNLZp1r1MH-31" edge="1">
          <mxGeometry y="10" relative="1" as="geometry">
            <mxPoint as="offset" />
          </mxGeometry>
        </mxCell>
        <mxCell id="bk5ybcZWfWzNLZp1r1MH-30" value="Đăng nhâp" style="rounded=1;whiteSpace=wrap;html=1;" parent="1" vertex="1">
          <mxGeometry x="-150" y="1050" width="120" height="60" as="geometry" />
        </mxCell>
        <mxCell id="bk5ybcZWfWzNLZp1r1MH-42" style="edgeStyle=orthogonalEdgeStyle;rounded=0;orthogonalLoop=1;jettySize=auto;html=1;exitX=0.5;exitY=0;exitDx=0;exitDy=0;entryX=0;entryY=0.5;entryDx=0;entryDy=0;fillColor=#f8cecc;strokeColor=#b85450;" parent="1" source="bk5ybcZWfWzNLZp1r1MH-31" target="bk5ybcZWfWzNLZp1r1MH-33" edge="1">
          <mxGeometry relative="1" as="geometry" />
        </mxCell>
        <mxCell id="bk5ybcZWfWzNLZp1r1MH-43" style="edgeStyle=orthogonalEdgeStyle;rounded=0;orthogonalLoop=1;jettySize=auto;html=1;exitX=1;exitY=0.5;exitDx=0;exitDy=0;entryX=0;entryY=0.5;entryDx=0;entryDy=0;" parent="1" source="bk5ybcZWfWzNLZp1r1MH-31" target="bk5ybcZWfWzNLZp1r1MH-34" edge="1">
          <mxGeometry relative="1" as="geometry">
            <Array as="points">
              <mxPoint x="320" y="1050" />
              <mxPoint x="260" y="1050" />
              <mxPoint x="260" y="1460" />
            </Array>
          </mxGeometry>
        </mxCell>
        <mxCell id="bk5ybcZWfWzNLZp1r1MH-44" style="edgeStyle=orthogonalEdgeStyle;rounded=0;orthogonalLoop=1;jettySize=auto;html=1;exitX=0.5;exitY=1;exitDx=0;exitDy=0;entryX=0;entryY=0.5;entryDx=0;entryDy=0;" parent="1" source="bk5ybcZWfWzNLZp1r1MH-31" target="bk5ybcZWfWzNLZp1r1MH-35" edge="1">
          <mxGeometry relative="1" as="geometry">
            <Array as="points">
              <mxPoint x="260" y="1080" />
            </Array>
          </mxGeometry>
        </mxCell>
        <mxCell id="bk5ybcZWfWzNLZp1r1MH-45" style="edgeStyle=orthogonalEdgeStyle;rounded=0;orthogonalLoop=1;jettySize=auto;html=1;exitX=0.5;exitY=1;exitDx=0;exitDy=0;entryX=0;entryY=0.5;entryDx=0;entryDy=0;" parent="1" source="bk5ybcZWfWzNLZp1r1MH-31" target="bk5ybcZWfWzNLZp1r1MH-36" edge="1">
          <mxGeometry relative="1" as="geometry" />
        </mxCell>
        <mxCell id="bk5ybcZWfWzNLZp1r1MH-46" style="edgeStyle=orthogonalEdgeStyle;rounded=0;orthogonalLoop=1;jettySize=auto;html=1;exitX=0.5;exitY=1;exitDx=0;exitDy=0;entryX=0;entryY=0.5;entryDx=0;entryDy=0;" parent="1" source="bk5ybcZWfWzNLZp1r1MH-31" target="bk5ybcZWfWzNLZp1r1MH-37" edge="1">
          <mxGeometry relative="1" as="geometry" />
        </mxCell>
        <mxCell id="bk5ybcZWfWzNLZp1r1MH-47" style="edgeStyle=orthogonalEdgeStyle;rounded=0;orthogonalLoop=1;jettySize=auto;html=1;exitX=0.5;exitY=0;exitDx=0;exitDy=0;entryX=0;entryY=0.5;entryDx=0;entryDy=0;fillColor=#e51400;strokeColor=#B20000;" parent="1" source="bk5ybcZWfWzNLZp1r1MH-31" target="bk5ybcZWfWzNLZp1r1MH-38" edge="1">
          <mxGeometry relative="1" as="geometry">
            <mxPoint x="260" y="770" as="targetPoint" />
            <Array as="points">
              <mxPoint x="260" y="896" />
              <mxPoint x="261" y="740" />
            </Array>
          </mxGeometry>
        </mxCell>
        <mxCell id="bk5ybcZWfWzNLZp1r1MH-48" style="edgeStyle=orthogonalEdgeStyle;rounded=0;orthogonalLoop=1;jettySize=auto;html=1;exitX=0.5;exitY=1;exitDx=0;exitDy=0;entryX=0;entryY=0.5;entryDx=0;entryDy=0;" parent="1" source="bk5ybcZWfWzNLZp1r1MH-31" target="bk5ybcZWfWzNLZp1r1MH-39" edge="1">
          <mxGeometry relative="1" as="geometry">
            <Array as="points">
              <mxPoint x="260" y="1360" />
            </Array>
          </mxGeometry>
        </mxCell>
        <mxCell id="sk3kzhsLk8KfLCe_7Abi-9" style="edgeStyle=orthogonalEdgeStyle;rounded=0;orthogonalLoop=1;jettySize=auto;html=1;exitX=0.5;exitY=0;exitDx=0;exitDy=0;entryX=0;entryY=0.5;entryDx=0;entryDy=0;fillColor=#e51400;strokeColor=#B20000;" parent="1" source="bk5ybcZWfWzNLZp1r1MH-31" target="sk3kzhsLk8KfLCe_7Abi-6" edge="1">
          <mxGeometry relative="1" as="geometry" />
        </mxCell>
        <mxCell id="bk5ybcZWfWzNLZp1r1MH-31" value="Trang chủ" style="rounded=1;whiteSpace=wrap;html=1;" parent="1" vertex="1">
          <mxGeometry x="200" y="1050" width="120" height="60" as="geometry" />
        </mxCell>
        <mxCell id="bk5ybcZWfWzNLZp1r1MH-33" value="Quản lý nhân viên" style="rounded=1;whiteSpace=wrap;html=1;" parent="1" vertex="1">
          <mxGeometry x="440" y="950" width="120" height="60" as="geometry" />
        </mxCell>
        <mxCell id="bn6vrm5dherGhuLXTLny-24" style="edgeStyle=orthogonalEdgeStyle;rounded=0;orthogonalLoop=1;jettySize=auto;html=1;exitX=1;exitY=0.5;exitDx=0;exitDy=0;entryX=0;entryY=0.5;entryDx=0;entryDy=0;" parent="1" source="bk5ybcZWfWzNLZp1r1MH-34" target="bn6vrm5dherGhuLXTLny-20" edge="1">
          <mxGeometry relative="1" as="geometry" />
        </mxCell>
        <mxCell id="sk3kzhsLk8KfLCe_7Abi-11" style="edgeStyle=orthogonalEdgeStyle;rounded=0;orthogonalLoop=1;jettySize=auto;html=1;exitX=0.5;exitY=1;exitDx=0;exitDy=0;entryX=0;entryY=0.5;entryDx=0;entryDy=0;" parent="1" source="bk5ybcZWfWzNLZp1r1MH-34" target="sk3kzhsLk8KfLCe_7Abi-1" edge="1">
          <mxGeometry relative="1" as="geometry" />
        </mxCell>
        <mxCell id="bk5ybcZWfWzNLZp1r1MH-34" value="Quản lý sản phẩm" style="rounded=1;whiteSpace=wrap;html=1;" parent="1" vertex="1">
          <mxGeometry x="440" y="1430" width="120" height="60" as="geometry" />
        </mxCell>
        <mxCell id="bk5ybcZWfWzNLZp1r1MH-35" value="Quản lý khách hàng" style="rounded=1;whiteSpace=wrap;html=1;" parent="1" vertex="1">
          <mxGeometry x="440" y="1050" width="120" height="60" as="geometry" />
        </mxCell>
        <mxCell id="bn6vrm5dherGhuLXTLny-26" style="edgeStyle=orthogonalEdgeStyle;rounded=0;orthogonalLoop=1;jettySize=auto;html=1;exitX=1;exitY=0.5;exitDx=0;exitDy=0;entryX=0;entryY=0.5;entryDx=0;entryDy=0;" parent="1" source="bk5ybcZWfWzNLZp1r1MH-36" target="bn6vrm5dherGhuLXTLny-22" edge="1">
          <mxGeometry relative="1" as="geometry" />
        </mxCell>
        <mxCell id="bk5ybcZWfWzNLZp1r1MH-36" value="Xử lý đơn hàng" style="rounded=1;whiteSpace=wrap;html=1;" parent="1" vertex="1">
          <mxGeometry x="440" y="1140" width="120" height="60" as="geometry" />
        </mxCell>
        <mxCell id="sk3kzhsLk8KfLCe_7Abi-5" style="edgeStyle=orthogonalEdgeStyle;rounded=0;orthogonalLoop=1;jettySize=auto;html=1;exitX=1;exitY=0.5;exitDx=0;exitDy=0;entryX=0;entryY=0.5;entryDx=0;entryDy=0;" parent="1" source="bk5ybcZWfWzNLZp1r1MH-37" target="sk3kzhsLk8KfLCe_7Abi-4" edge="1">
          <mxGeometry relative="1" as="geometry" />
        </mxCell>
        <mxCell id="bk5ybcZWfWzNLZp1r1MH-37" value="Bán hàng&amp;nbsp;" style="rounded=1;whiteSpace=wrap;html=1;" parent="1" vertex="1">
          <mxGeometry x="440" y="1230" width="120" height="60" as="geometry" />
        </mxCell>
        <mxCell id="1wJnREsrl973j4fqkqGL-4" style="edgeStyle=orthogonalEdgeStyle;rounded=0;orthogonalLoop=1;jettySize=auto;html=1;exitX=1;exitY=0.5;exitDx=0;exitDy=0;entryX=0;entryY=0.5;entryDx=0;entryDy=0;fillColor=#f8cecc;strokeColor=#b85450;" edge="1" parent="1" source="bk5ybcZWfWzNLZp1r1MH-38" target="1wJnREsrl973j4fqkqGL-2">
          <mxGeometry relative="1" as="geometry" />
        </mxCell>
        <mxCell id="1wJnREsrl973j4fqkqGL-5" style="edgeStyle=orthogonalEdgeStyle;rounded=0;orthogonalLoop=1;jettySize=auto;html=1;exitX=1;exitY=0.5;exitDx=0;exitDy=0;entryX=0;entryY=0.5;entryDx=0;entryDy=0;fillColor=#f8cecc;strokeColor=#b85450;" edge="1" parent="1" source="bk5ybcZWfWzNLZp1r1MH-38" target="1wJnREsrl973j4fqkqGL-1">
          <mxGeometry relative="1" as="geometry" />
        </mxCell>
        <mxCell id="bk5ybcZWfWzNLZp1r1MH-38" value="Thống kê&amp;nbsp;" style="rounded=1;whiteSpace=wrap;html=1;" parent="1" vertex="1">
          <mxGeometry x="440" y="870" width="120" height="60" as="geometry" />
        </mxCell>
        <mxCell id="bn6vrm5dherGhuLXTLny-27" style="edgeStyle=orthogonalEdgeStyle;rounded=0;orthogonalLoop=1;jettySize=auto;html=1;exitX=1;exitY=0.5;exitDx=0;exitDy=0;entryX=0;entryY=0.5;entryDx=0;entryDy=0;" parent="1" source="bk5ybcZWfWzNLZp1r1MH-39" target="bn6vrm5dherGhuLXTLny-23" edge="1">
          <mxGeometry relative="1" as="geometry" />
        </mxCell>
        <mxCell id="bk5ybcZWfWzNLZp1r1MH-39" value="Quản lý kho hàng" style="rounded=1;whiteSpace=wrap;html=1;" parent="1" vertex="1">
          <mxGeometry x="440" y="1330" width="120" height="60" as="geometry" />
        </mxCell>
        <mxCell id="bn6vrm5dherGhuLXTLny-10" style="edgeStyle=orthogonalEdgeStyle;rounded=0;orthogonalLoop=1;jettySize=auto;html=1;exitX=0.5;exitY=1;exitDx=0;exitDy=0;" parent="1" source="bn6vrm5dherGhuLXTLny-2" target="bn6vrm5dherGhuLXTLny-6" edge="1">
          <mxGeometry relative="1" as="geometry">
            <Array as="points">
              <mxPoint x="760" y="370" />
              <mxPoint x="760" y="370" />
            </Array>
          </mxGeometry>
        </mxCell>
        <mxCell id="bn6vrm5dherGhuLXTLny-2" value="Thanh toán Stripe" style="rounded=1;whiteSpace=wrap;html=1;" parent="1" vertex="1">
          <mxGeometry x="700" y="220" width="120" height="60" as="geometry" />
        </mxCell>
        <mxCell id="bn6vrm5dherGhuLXTLny-16" style="edgeStyle=orthogonalEdgeStyle;rounded=0;orthogonalLoop=1;jettySize=auto;html=1;exitX=1;exitY=0.5;exitDx=0;exitDy=0;entryX=1;entryY=0.5;entryDx=0;entryDy=0;" parent="1" source="bn6vrm5dherGhuLXTLny-5" target="bn6vrm5dherGhuLXTLny-7" edge="1">
          <mxGeometry relative="1" as="geometry" />
        </mxCell>
        <mxCell id="w5vjmf57E02bDevBpPmU-5" style="edgeStyle=orthogonalEdgeStyle;rounded=0;orthogonalLoop=1;jettySize=auto;html=1;exitX=1;exitY=0.5;exitDx=0;exitDy=0;entryX=1;entryY=0.75;entryDx=0;entryDy=0;" parent="1" source="bn6vrm5dherGhuLXTLny-5" target="w5vjmf57E02bDevBpPmU-4" edge="1">
          <mxGeometry relative="1" as="geometry" />
        </mxCell>
        <mxCell id="w5vjmf57E02bDevBpPmU-6" style="edgeStyle=orthogonalEdgeStyle;rounded=0;orthogonalLoop=1;jettySize=auto;html=1;exitX=1;exitY=0.5;exitDx=0;exitDy=0;entryX=1;entryY=0.5;entryDx=0;entryDy=0;" parent="1" source="bn6vrm5dherGhuLXTLny-5" target="bn6vrm5dherGhuLXTLny-8" edge="1">
          <mxGeometry relative="1" as="geometry" />
        </mxCell>
        <mxCell id="bn6vrm5dherGhuLXTLny-5" value="Thanh toán khác" style="rounded=1;whiteSpace=wrap;html=1;" parent="1" vertex="1">
          <mxGeometry x="920" y="220" width="120" height="60" as="geometry" />
        </mxCell>
        <mxCell id="bn6vrm5dherGhuLXTLny-6" value="Thanh toán thành công" style="rounded=1;whiteSpace=wrap;html=1;" parent="1" vertex="1">
          <mxGeometry x="690" y="370" width="120" height="60" as="geometry" />
        </mxCell>
        <mxCell id="bn6vrm5dherGhuLXTLny-19" style="edgeStyle=orthogonalEdgeStyle;rounded=0;orthogonalLoop=1;jettySize=auto;html=1;exitX=0;exitY=0.5;exitDx=0;exitDy=0;entryX=1;entryY=0.5;entryDx=0;entryDy=0;" parent="1" source="bn6vrm5dherGhuLXTLny-7" target="bn6vrm5dherGhuLXTLny-6" edge="1">
          <mxGeometry relative="1" as="geometry" />
        </mxCell>
        <mxCell id="bn6vrm5dherGhuLXTLny-7" value="Thanh toán ngân hàng" style="rounded=1;whiteSpace=wrap;html=1;" parent="1" vertex="1">
          <mxGeometry x="1010" y="370" width="120" height="60" as="geometry" />
        </mxCell>
        <mxCell id="bn6vrm5dherGhuLXTLny-18" style="edgeStyle=orthogonalEdgeStyle;rounded=0;orthogonalLoop=1;jettySize=auto;html=1;" parent="1" source="bn6vrm5dherGhuLXTLny-8" target="bn6vrm5dherGhuLXTLny-6" edge="1">
          <mxGeometry relative="1" as="geometry">
            <Array as="points">
              <mxPoint x="760" y="320" />
            </Array>
          </mxGeometry>
        </mxCell>
        <mxCell id="bn6vrm5dherGhuLXTLny-8" value="Thanh toán MoMo" style="rounded=1;whiteSpace=wrap;html=1;" parent="1" vertex="1">
          <mxGeometry x="1010" y="290" width="120" height="60" as="geometry" />
        </mxCell>
        <mxCell id="bn6vrm5dherGhuLXTLny-20" value="Chi tiết sản phẩm" style="rounded=1;whiteSpace=wrap;html=1;" parent="1" vertex="1">
          <mxGeometry x="640" y="1430" width="120" height="60" as="geometry" />
        </mxCell>
        <mxCell id="bn6vrm5dherGhuLXTLny-22" value="Chi tiết đơn hàng" style="rounded=1;whiteSpace=wrap;html=1;" parent="1" vertex="1">
          <mxGeometry x="640" y="1140" width="120" height="60" as="geometry" />
        </mxCell>
        <mxCell id="bn6vrm5dherGhuLXTLny-28" style="edgeStyle=orthogonalEdgeStyle;rounded=0;orthogonalLoop=1;jettySize=auto;html=1;exitX=1;exitY=0.5;exitDx=0;exitDy=0;entryX=1;entryY=0.5;entryDx=0;entryDy=0;" parent="1" source="bn6vrm5dherGhuLXTLny-23" target="bn6vrm5dherGhuLXTLny-20" edge="1">
          <mxGeometry relative="1" as="geometry">
            <Array as="points">
              <mxPoint x="830" y="1360" />
              <mxPoint x="830" y="1460" />
            </Array>
          </mxGeometry>
        </mxCell>
        <mxCell id="bn6vrm5dherGhuLXTLny-23" value="Chi tiết kho hàng" style="rounded=1;whiteSpace=wrap;html=1;" parent="1" vertex="1">
          <mxGeometry x="640" y="1330" width="120" height="60" as="geometry" />
        </mxCell>
        <mxCell id="bn6vrm5dherGhuLXTLny-34" style="edgeStyle=orthogonalEdgeStyle;rounded=0;orthogonalLoop=1;jettySize=auto;html=1;exitX=0.5;exitY=0;exitDx=0;exitDy=0;entryX=0.5;entryY=1;entryDx=0;entryDy=0;" parent="1" source="bn6vrm5dherGhuLXTLny-30" target="bn6vrm5dherGhuLXTLny-31" edge="1">
          <mxGeometry relative="1" as="geometry" />
        </mxCell>
        <mxCell id="bn6vrm5dherGhuLXTLny-30" value="Quên mật khẩu" style="rounded=1;whiteSpace=wrap;html=1;" parent="1" vertex="1">
          <mxGeometry x="530" y="-110" width="120" height="60" as="geometry" />
        </mxCell>
        <mxCell id="bn6vrm5dherGhuLXTLny-35" style="edgeStyle=orthogonalEdgeStyle;rounded=0;orthogonalLoop=1;jettySize=auto;html=1;exitX=0.5;exitY=0;exitDx=0;exitDy=0;entryX=0.5;entryY=1;entryDx=0;entryDy=0;" parent="1" source="bn6vrm5dherGhuLXTLny-31" target="bn6vrm5dherGhuLXTLny-32" edge="1">
          <mxGeometry relative="1" as="geometry" />
        </mxCell>
        <mxCell id="bn6vrm5dherGhuLXTLny-31" value="Kiểm tra OTP" style="rounded=1;whiteSpace=wrap;html=1;" parent="1" vertex="1">
          <mxGeometry x="530" y="-200" width="120" height="60" as="geometry" />
        </mxCell>
        <mxCell id="bn6vrm5dherGhuLXTLny-32" value="Đổi mật khẩu" style="rounded=1;whiteSpace=wrap;html=1;" parent="1" vertex="1">
          <mxGeometry x="530" y="-300" width="120" height="60" as="geometry" />
        </mxCell>
        <mxCell id="w5vjmf57E02bDevBpPmU-4" value="Đăt hàng thành công" style="rounded=1;whiteSpace=wrap;html=1;" parent="1" vertex="1">
          <mxGeometry x="1010" y="460" width="120" height="60" as="geometry" />
        </mxCell>
        <mxCell id="sk3kzhsLk8KfLCe_7Abi-1" value="Thêm&amp;nbsp; kho hàng" style="rounded=1;whiteSpace=wrap;html=1;" parent="1" vertex="1">
          <mxGeometry x="640" y="1520" width="120" height="60" as="geometry" />
        </mxCell>
        <mxCell id="sk3kzhsLk8KfLCe_7Abi-4" value="Thanh Toán" style="rounded=1;whiteSpace=wrap;html=1;" parent="1" vertex="1">
          <mxGeometry x="640" y="1230" width="120" height="60" as="geometry" />
        </mxCell>
        <mxCell id="sk3kzhsLk8KfLCe_7Abi-10" style="edgeStyle=orthogonalEdgeStyle;rounded=0;orthogonalLoop=1;jettySize=auto;html=1;exitX=1;exitY=0.5;exitDx=0;exitDy=0;entryX=1;entryY=0.75;entryDx=0;entryDy=0;fillColor=#e51400;strokeColor=#B20000;" parent="1" source="sk3kzhsLk8KfLCe_7Abi-6" target="bn6vrm5dherGhuLXTLny-22" edge="1">
          <mxGeometry relative="1" as="geometry">
            <Array as="points">
              <mxPoint x="920" y="810" />
              <mxPoint x="920" y="1185" />
            </Array>
          </mxGeometry>
        </mxCell>
        <mxCell id="sk3kzhsLk8KfLCe_7Abi-6" value="Quản Lý hóa đơn" style="rounded=1;whiteSpace=wrap;html=1;" parent="1" vertex="1">
          <mxGeometry x="430" y="780" width="120" height="60" as="geometry" />
        </mxCell>
        <mxCell id="sk3kzhsLk8KfLCe_7Abi-14" value="Nhân Viên" style="text;html=1;align=center;verticalAlign=middle;resizable=0;points=[];autosize=1;strokeColor=none;fillColor=none;" parent="1" vertex="1">
          <mxGeometry x="30" y="810" width="80" height="30" as="geometry" />
        </mxCell>
        <mxCell id="sk3kzhsLk8KfLCe_7Abi-15" value="" style="endArrow=none;html=1;rounded=0;fillColor=#e51400;strokeColor=#050000;" parent="1" edge="1">
          <mxGeometry width="50" height="50" relative="1" as="geometry">
            <mxPoint x="-70" y="830" as="sourcePoint" />
            <mxPoint x="20" y="830" as="targetPoint" />
            <Array as="points">
              <mxPoint x="-70" y="830" />
            </Array>
          </mxGeometry>
        </mxCell>
        <mxCell id="sk3kzhsLk8KfLCe_7Abi-16" value="" style="endArrow=none;html=1;rounded=0;fillColor=#e51400;strokeColor=#B20000;" parent="1" edge="1">
          <mxGeometry width="50" height="50" relative="1" as="geometry">
            <mxPoint x="-70" y="860" as="sourcePoint" />
            <mxPoint x="20" y="860" as="targetPoint" />
            <Array as="points">
              <mxPoint x="-70" y="860" />
              <mxPoint x="-40" y="860" />
            </Array>
          </mxGeometry>
        </mxCell>
        <mxCell id="sk3kzhsLk8KfLCe_7Abi-17" value="Quản Lý" style="text;html=1;align=center;verticalAlign=middle;resizable=0;points=[];autosize=1;strokeColor=none;fillColor=none;" parent="1" vertex="1">
          <mxGeometry x="35" y="848" width="70" height="30" as="geometry" />
        </mxCell>
        <mxCell id="sk3kzhsLk8KfLCe_7Abi-18" value="" style="endArrow=none;html=1;rounded=0;strokeColor=#FF33FF;" parent="1" edge="1">
          <mxGeometry width="50" height="50" relative="1" as="geometry">
            <mxPoint x="-70" y="890" as="sourcePoint" />
            <mxPoint x="20" y="890" as="targetPoint" />
            <Array as="points">
              <mxPoint x="-70" y="890" />
              <mxPoint x="-40" y="890" />
            </Array>
          </mxGeometry>
        </mxCell>
        <mxCell id="sk3kzhsLk8KfLCe_7Abi-19" value="Nhân Viên , Quản Lý" style="text;html=1;align=center;verticalAlign=middle;resizable=0;points=[];autosize=1;strokeColor=none;fillColor=none;" parent="1" vertex="1">
          <mxGeometry x="30" y="878" width="130" height="30" as="geometry" />
        </mxCell>
        <mxCell id="ir-MCSSXejYw-hocIZUp-1" value="Chú thích" style="text;html=1;align=center;verticalAlign=middle;resizable=0;points=[];autosize=1;strokeColor=none;fillColor=none;" parent="1" vertex="1">
          <mxGeometry x="-40" y="760" width="70" height="30" as="geometry" />
        </mxCell>
        <mxCell id="1wJnREsrl973j4fqkqGL-1" value="Thống kê theo sản phẩm bán chạy" style="rounded=1;whiteSpace=wrap;html=1;" vertex="1" parent="1">
          <mxGeometry x="680" y="833" width="120" height="60" as="geometry" />
        </mxCell>
        <mxCell id="1wJnREsrl973j4fqkqGL-2" value="Thống kê doanh thu theo năm" style="rounded=1;whiteSpace=wrap;html=1;" vertex="1" parent="1">
          <mxGeometry x="680" y="920" width="120" height="60" as="geometry" />
        </mxCell>
      </root>
    </mxGraphModel>
  </diagram>
</mxfile>
